# xmcd
#
# Track frame offsets: 
#        150
#        18148
#        35391
#        58121
#        73136
#        86076
#        102026
#        117818
#        138668
#        157903
#        168590
#        182438
#        198493
#
# Disc length: 2882 seconds
#
# Revision: 0
# Processed by: cddbd v1.5.2PL0 Copyright (c) Steve Scherf et al.
# Submitted via: ExactAudioCopy v0.99pb4
#
DISCID=a90b400d
DTITLE=Влад Забелин - Белгородчина, мать Россиюшка
DYEAR=2004
DGENRE=
TTITLE0=Белгородчина, мать Россиюшка
TTITLE1=Дай мне, боже
TTITLE2=Мама, я вернусь
TTITLE3=Степь моя
TTITLE4=О друге
TTITLE5=Добрая весть
TTITLE6=На край света
TTITLE7=Белый снег
TTITLE8=Подожди немного
TTITLE9=Пацан
TTITLE10=Не забуду никогда
TTITLE11=И опять сначала
TTITLE12=Белгородчина, мать Россиюшка (Караоке)
EXTD=
EXTT0=
EXTT1=
EXTT2=
EXTT3=
EXTT4=
EXTT5=
EXTT6=
EXTT7=
EXTT8=
EXTT9=
EXTT10=
EXTT11=
EXTT12=
PLAYORDER=
